<?xml version="1.0" encoding="UTF-8"?>
<svg width="26px" height="26px" viewBox="0 0 26 26" version="1.1" xmlns="http://www.w3.org/2000/svg" xmlns:xlink="http://www.w3.org/1999/xlink">
    <!-- Generator: Sketch 43.2 (39069) - http://www.bohemiancoding.com/sketch -->
    <title>profile</title>
    <desc>Created with Sketch.</desc>
    <defs></defs>
    <g id="Page-1" stroke="none" stroke-width="1" fill="none" fill-rule="evenodd">
        <g id="iPhone-7" transform="translate(-207.000000, -400.000000)" fill="#000000">
            <path d="M232.138003,421.240757 C233.076622,422.670875 232.998404,426 232.998404,426 L207.003875,426 C207.003875,426 206.873512,422.459874 208.125003,421.029757 C208.828968,420.420198 211.045151,418.333634 214.825699,417.817854 C218.580175,417.325518 217.537265,412.824166 217.537265,412.824166 C217.537265,412.824166 214.799627,410.456267 214.825699,408.322813 C214.877845,406.165915 214.825699,405.064022 214.825699,405.064022 C214.825699,405.064022 215,400 220,400 C225,400 225.333016,405.064022 225.333016,405.064022 L225.333016,408.627592 C225.333016,408.627592 224.889779,411.651939 222.725742,412.753832 C222.725742,412.753832 221.578541,417.325518 225.333016,417.841298 C229.113564,418.333634 231.642621,420.467087 232.138003,421.240757 Z" id="profile"></path>
        </g>
    </g>
</svg>