<?xml version="1.0" encoding="UTF-8"?>
<svg width="18px" height="18px" viewBox="0 0 18 18" version="1.1" xmlns="http://www.w3.org/2000/svg" xmlns:xlink="http://www.w3.org/1999/xlink">
    <!-- Generator: Sketch 43.2 (39069) - http://www.bohemiancoding.com/sketch -->
    <title>Settings Icon</title>
    <desc>Created with Sketch.</desc>
    <defs></defs>
    <g id="Page-1" stroke="none" stroke-width="1" fill="none" fill-rule="evenodd">
        <g id="iPhone-7" transform="translate(-226.000000, -348.000000)" fill-rule="nonzero" fill="#000000">
            <path d="M243.906495,355.447378 C243.843735,355.365203 243.761848,355.316317 243.660422,355.300801 L241.515788,354.972758 C241.398642,354.597717 241.238479,354.215001 241.035381,353.82428 C241.175842,353.628981 241.386697,353.353642 241.667906,352.998057 C241.949115,352.642554 242.148272,352.382894 242.265583,352.21875 C242.328097,352.132799 242.359128,352.04303 242.359128,351.949198 C242.359128,351.839891 242.332037,351.754022 242.277117,351.691427 C241.996031,351.292948 241.351438,350.62894 240.343585,349.699198 C240.250204,349.621087 240.152268,349.582052 240.050842,349.582052 C239.933572,349.582052 239.839863,349.617146 239.76951,349.687418 L238.10553,350.941345 C237.785121,350.7772 237.433559,350.632676 237.050924,350.507689 L236.722799,348.351562 C236.714959,348.250014 236.669973,348.165992 236.587962,348.099579 C236.505828,348.033083 236.410313,348 236.30076,348 L233.699239,348 C233.472663,348 233.331997,348.109307 233.277364,348.328084 C233.175774,348.718558 233.062445,349.445121 232.9375,350.507648 C232.570257,350.625041 232.214796,350.773465 231.871073,350.953125 L230.253885,349.699198 C230.152337,349.621087 230.050788,349.582052 229.949239,349.582052 C229.777378,349.582052 229.408288,349.861331 228.841848,350.419932 C228.275408,350.978656 227.890844,351.398519 227.687541,351.679646 C227.617187,351.781195 227.582134,351.871087 227.582134,351.949198 C227.582134,352.04303 227.621128,352.13678 227.699239,352.230407 C228.222622,352.863343 228.64068,353.402241 228.953207,353.847759 C228.757867,354.207079 228.605544,354.566522 228.496278,354.925842 L226.316509,355.253885 C226.230599,355.269565 226.156428,355.320422 226.093873,355.406373 C226.031195,355.492242 226,355.582174 226,355.67576 L226,358.277405 C226,358.379118 226.031195,358.470692 226.09375,358.552744 C226.156305,358.634755 226.238274,358.683887 226.339864,358.699362 L228.484539,359.01583 C228.593846,359.398587 228.753968,359.785162 228.964946,360.175678 C228.824403,360.3711 228.613466,360.646398 228.332216,361.001901 C228.051007,361.357568 227.851603,361.617146 227.734539,361.781208 C227.671943,361.867488 227.640748,361.957092 227.640748,362.050883 C227.640748,362.152309 227.668085,362.242077 227.722718,362.320189 C228.027405,362.74231 228.671916,363.39856 229.656373,364.289144 C229.742365,364.375095 229.840056,364.417947 229.949321,364.417947 C230.066591,364.417947 230.16424,364.382976 230.24231,364.312745 L231.894798,363.058654 C232.215288,363.222717 232.566768,363.367282 232.949567,363.492433 L233.277651,365.64856 C233.285573,365.749985 233.330478,365.834007 233.412407,365.900585 C233.494376,365.967162 233.590179,366.00004 233.699526,366.00004 L236.301047,366.00004 C236.528034,366.00004 236.668495,365.890774 236.723292,365.671915 C236.824718,365.2814 236.937924,364.554919 237.06291,363.492433 C237.430111,363.375122 237.785614,363.226616 238.129337,363.046874 L239.746647,364.312745 C239.855954,364.383017 239.957667,364.417947 240.051211,364.417947 C240.223032,364.417947 240.590192,364.140802 241.15261,363.585937 C241.715315,363.031359 242.102013,362.609443 242.312745,362.320189 C242.382976,362.242118 242.418194,362.152309 242.418194,362.050883 C242.418194,361.94917 242.379323,361.851315 242.300924,361.757853 C241.73867,361.070161 241.320613,360.531304 241.04712,360.140542 C241.203343,359.851452 241.355748,359.496073 241.504213,359.074157 L243.672161,358.746278 C243.765706,358.730557 243.844105,358.679701 243.906454,358.593749 C243.968968,358.507634 243.999999,358.417742 243.999999,358.324033 L243.999999,355.722676 C244.000204,355.621128 243.969173,355.529471 243.906495,355.447378 Z M237.12136,359.121073 C236.535587,359.707092 235.828521,360.000122 235.000246,360.000122 C234.172052,360.000122 233.465069,359.707092 232.87905,359.121073 C232.293235,358.535299 232.000205,357.828193 232.000205,357.000082 C232.000205,356.171888 232.293071,355.464905 232.87905,354.878885 C233.465069,354.293071 234.172176,354.000041 235.000246,354.000041 C235.828521,354.000041 236.535628,354.293071 237.12136,354.878885 C237.707256,355.464905 238.000287,356.171888 238.000287,357.000082 C238.000287,357.828193 237.707297,358.53534 237.12136,359.121073 Z" id="Settings-Icon"></path>
        </g>
    </g>
</svg>