<svg width="500" height="500" viewBox="0 0 500 500" fill="none" xmlns="http://www.w3.org/2000/svg">
<rect width="500" height="500" fill="#FAFAFA"/>
<path d="M250 250C285.3 250 314 221.3 314 186C314 150.7 285.3 122 250 122C214.7 122 186 150.7 186 186C186 221.3 214.7 250 250 250ZM160.4 378H339.6C352 378 362 369.4 362 358.8V339.6C362 307.8 331.9 282 294.8 282C284 282 276.1 290 250 290C223.1 290 216.6 282 205.2 282C168.1 282 138 307.8 138 339.6V358.8C138 369.4 148 378 160.4 378Z" fill="black"/>
</svg>
